<?xml version="1.0" encoding="utf-8"?>
<!-- Generator: Adobe Illustrator 21.0.2, SVG Export Plug-In . SVG Version: 6.00 Build 0)  -->
<svg version="1.1" id="Layer_1" xmlns="http://www.w3.org/2000/svg" xmlns:xlink="http://www.w3.org/1999/xlink" x="0px" y="0px"
	 viewBox="0 0 128 128" style="enable-background:new 0 0 128 128;" xml:space="preserve">
<style type="text/css">
	.st0{fill:#565656;}
	.st1{fill:#FFFFFF;}
</style>
<g>
	<circle class="st0" cx="64" cy="66" r="52"/>
</g>
<g>
	<circle class="st0" cx="50.9" cy="63.9" r="4.9"/>
</g>
<g>
	<circle class="st0" cx="64.5" cy="63.9" r="4.9"/>
</g>
<g>
	<circle class="st0" cx="78.1" cy="63.9" r="4.9"/>
</g>
<path class="st1" d="M64,38.4c-17.4,0-31.6,11.5-31.6,25.7c0,6.1,2.6,11.7,7,16.1c-1.5,6.2-6.7,11.8-6.8,11.8
	c-0.3,0.3-0.3,0.7-0.2,1.1c0.2,0.4,0.5,0.6,0.9,0.6c8.2,0,14.3-3.9,17.3-6.3c4,1.5,8.5,2.4,13.3,2.4c17.4,0,31.6-11.5,31.6-25.7
	C95.6,49.9,81.4,38.4,64,38.4z M49.8,69.7c-3,0-5.4-2.4-5.4-5.4c0-3,2.4-5.4,5.4-5.4c3,0,5.4,2.4,5.4,5.4
	C55.2,67.3,52.8,69.7,49.8,69.7z M64.1,69.7c-3,0-5.4-2.4-5.4-5.4c0-3,2.4-5.4,5.4-5.4c3,0,5.4,2.4,5.4,5.4
	C69.5,67.3,67.1,69.7,64.1,69.7z M78.4,69.7c-3,0-5.4-2.4-5.4-5.4c0-3,2.4-5.4,5.4-5.4c3,0,5.4,2.4,5.4,5.4
	C83.8,67.3,81.4,69.7,78.4,69.7z"/>
</svg>
