<?xml version="1.0" encoding="utf-8"?>
<!-- Generator: Adobe Illustrator 21.0.2, SVG Export Plug-In . SVG Version: 6.00 Build 0)  -->
<svg version="1.1" id="Layer_1" xmlns="http://www.w3.org/2000/svg" xmlns:xlink="http://www.w3.org/1999/xlink" x="0px" y="0px"
	 viewBox="0 0 128 128" style="enable-background:new 0 0 128 128;" xml:space="preserve">
<style type="text/css">
	.st0{fill:#FFFFFF;}
	.st1{fill:#01E675;}
	.st2{fill:#7D51A0;}
	.st3{fill:#0088CC;}
</style>
<path class="st0" d="M89.9,78.6l-2.3,10C87.2,90,86,91,84.5,91c-25.1,0-45.6-20.4-45.6-45.6c0-1.5,1-2.7,2.4-3l10-2.3
	c1.5-0.3,3,0.4,3.6,1.8l4.6,10.8c0.5,1.3,0.2,2.8-0.9,3.6l-5.4,4.3c3.4,6.9,9,12.5,15.9,15.9l4.4-5.4c0.9-1.1,2.4-1.4,3.6-0.9
	l10.8,4.6C89.4,75.6,90.2,77.1,89.9,78.6z"/>
<g>
	<path class="st1" d="M64,117.8L64,117.8c28.7,0,52-23.3,52-52l0,0c0-28.7-23.3-52-52-52l0,0c-28.7,0-52,23.3-52,52l0,0
		C12,94.6,35.3,117.8,64,117.8z"/>
	<path class="st0" d="M64,31.2L64,31.2L64,31.2c19.1,0,34.7,15.6,34.7,34.7c0,19.1-15.5,34.7-34.7,34.7c-7,0-13.6-2.1-19.1-5.7
		L31.6,99l4.3-12.9c-4.2-5.7-6.6-12.7-6.6-20.3C29.3,46.7,44.9,31.2,64,31.2z M54.3,48.8c-0.7-1.6-1.2-1.7-2.2-1.7
		c-0.3,0-0.7,0-1.2,0c-1.3,0-2.7,0.4-3.5,1.2c-1,1-3.5,3.5-3.5,8.4c0,5,3.6,9.8,4.1,10.5c0.5,0.7,7.1,11,17.3,15.2
		c8,3.3,10.3,3,12.1,2.6c2.6-0.6,6-2.5,6.8-4.9c0.8-2.4,0.8-4.4,0.6-4.8c-0.2-0.4-0.9-0.7-1.9-1.2c-1-0.5-6-3-6.9-3.3
		c-0.9-0.3-1.8-0.2-2.5,0.8c-1,1.4-1.9,2.8-2.7,3.6c-0.6,0.7-1.6,0.7-2.4,0.4c-1.1-0.5-4.3-1.6-8.1-5c-3-2.7-5-6-5.6-7
		c-0.6-1-0.1-1.6,0.4-2.2c0.5-0.6,1-1.1,1.5-1.7c0.5-0.6,0.8-0.9,1.1-1.6c0.3-0.7,0.1-1.4-0.1-1.9S55.1,50.8,54.3,48.8z"/>
</g>
<g>
	<ellipse class="st0" cx="64.2" cy="66" rx="47.6" ry="46.2"/>
	<path class="st2" d="M64,14c-28.7,0-52,23.3-52,52s23.3,52,52,52s52-23.3,52-52S92.7,14,64,14z M63.4,36.3c0.2-0.7,0.8-1,0.9-1.1
		c0.3-0.1,0.6-0.2,1.1-0.2c0,0,0.5,0,0.9,0C80,35.4,91.9,45.1,93.6,59.9c0.1,1,0.3,2.2,0.4,4.6c0,0.5,0,1.4-0.6,1.9
		c-0.3,0.3-0.6,0.4-0.8,0.4c-0.3-0.1-0.8-0.2-1.1-0.6C91,65.7,91,65,91,64.7c-0.1-2.7-0.5-5.4-1.1-8c-2.3-9.7-11.1-17.4-21-18.5
		c-1.2-0.1-2.3-0.3-3.5-0.3c-0.8,0-1.6-0.2-1.9-0.7C63.2,36.9,63.4,36.4,63.4,36.3z M68.8,45.5c0,0-0.6,0-1.3-0.2
		c-0.6-0.1-1-0.3-1.3-0.6c-0.3-0.4-0.4-0.8-0.4-1.1c0.1-0.3,0.2-0.6,0.6-0.9c0.5-0.4,1.1-0.4,1.4-0.4c8.1,0.4,12.9,5.1,12.9,5.1
		c0.4,0.4,2.2,2.1,3.7,5c1.8,3.4,2.4,6.6,2.5,8.5c0,0.4,0,1.1-0.3,1.8c-0.1,0.3-0.3,0.6-0.6,0.8c-0.4,0.3-0.8,0.3-1,0.3
		c-0.2-0.1-0.5-0.2-0.7-0.5c-0.3-0.3-0.4-0.6-0.4-0.8c-0.4-3.7-1-7.4-3.3-10.5C77.6,48,73.5,46.2,68.8,45.5z M79.4,59.6
		c-0.1,1.1-0.5,1.5-0.6,1.6c-0.3,0.3-0.7,0.4-0.9,0.4c-0.3-0.1-0.6-0.2-0.9-0.5c-0.5-0.4-0.5-1.1-0.5-1.3c-0.1-0.9-0.8-3.9-2.3-5.3
		c-1-0.9-2.3-1.3-4.2-1.6c-0.8-0.1-1.5-0.3-1.8-0.8c-0.2-0.4-0.1-0.8,0-1c0.3-1,1.6-1.3,1.7-1.3c0.8,0.1,6.1,0.9,8.5,4.8
		C79.5,56.8,79.4,59,79.4,59.6z M93.9,88.6c-2,2.4-3.9,4.9-6.2,6.9c-2,1.7-4.6,1.9-7.2,0.9C59,87.6,43.6,72.7,34.7,51.2
		c-0.2-0.5-0.4-1.1-0.6-1.6c-1.7-4.8-1.2-6.7,2.8-9.9c1.3-1.1,2.7-2,4.1-2.9c2.4-1.5,5-1.5,6.7,0.6c3,3.6,5.8,7.3,8.2,11.3
		c1.8,2.9,1.2,4.6-1.5,6.8c-0.6,0.5-1.3,1-1.9,1.5c-1.5,1.3-2.2,2.8-1.5,4.8c3,8.9,9.2,14.5,17.9,17.5c1,0.3,2.6-0.4,3.7-1.1
		c0.8-0.5,1.3-1.5,1.9-2.3c1.7-2.2,4.5-3.1,6.8-1.6c4.1,2.6,8.1,5.5,11.9,8.5c0.8,0.6,1,2.1,1.5,3.1C94.4,87,94.4,87.9,93.9,88.6z"
		/>
</g>
<circle id="ellipse" class="st3" cx="62" cy="64" r="55"/>
<path id="logo" class="st0" d="M58.9,80.3c-2.6,2.6-5.2,5.1-7.8,7.6c-0.9,0.9-1.9,1.4-3.2,1.3c-0.9,0-1.4-0.4-1.7-1.3
	c-2-6.1-4-12.3-6-18.5c-0.2-0.6-0.5-0.9-1.1-1.1c-4.7-1.4-9.3-2.9-14-4.4c-0.7-0.2-1.4-0.5-2.1-0.9c-1-0.6-1.1-1.7-0.2-2.5
	c0.8-0.7,1.7-1.3,2.7-1.7c5.7-2.3,11.5-4.4,17.2-6.7c14.5-5.6,29.1-11.2,43.6-16.8c2.8-1.1,4.9,0.4,4.6,3.4
	c-0.2,1.9-0.7,3.8-1.1,5.7c-3.2,14.9-6.3,29.8-9.5,44.8c-0.8,3.5-3.2,4.5-6.1,2.3c-4.9-3.6-9.8-7.2-14.6-10.8
	C59.5,80.7,59.2,80.5,58.9,80.3z M48,84.9c0.1,0,0.1,0,0.2,0c0-0.2,0.1-0.3,0.1-0.4c0.3-3.4,0.6-6.8,0.9-10.1
	c0.1-0.8,0.3-1.3,0.9-1.8c4.5-4,9-8.1,13.4-12.1c5-4.5,9.9-8.9,14.9-13.4c0.3-0.3,0.4-0.8,0.6-1.1c-0.5,0-1-0.2-1.4-0.1
	c-0.6,0.2-1.1,0.5-1.6,0.8C65,53.4,54.1,60.3,43.1,67.2c-0.6,0.4-0.7,0.7-0.5,1.4c0.8,2.3,1.5,4.7,2.3,7C46,78.7,47,81.8,48,84.9z"
	/>
</svg>
