<?xml version="1.0" encoding="utf-8"?>
<!-- Generator: Adobe Illustrator 21.0.2, SVG Export Plug-In . SVG Version: 6.00 Build 0)  -->
<svg version="1.1" id="Layer_1" xmlns="http://www.w3.org/2000/svg" xmlns:xlink="http://www.w3.org/1999/xlink" x="0px" y="0px"
	 viewBox="0 0 64 64" style="enable-background:new 0 0 64 64;" xml:space="preserve">
<g>
	<path d="M32,9c12.7,0,23,10.3,23,23S44.7,55,32,55S9,44.7,9,32S19.3,9,32,9 M32,5C17.1,5,5,17.1,5,32s12.1,27,27,27s27-12.1,27-27
		S46.9,5,32,5L32,5z"/>
</g>
<g>
	<path d="M33,12h-3c-0.6,0-1,0.4-1,1v21h5V13C34,12.4,33.6,12,33,12L33,12z"/>
</g>
<g>
	<path d="M47,29H29v5h18c0.6,0,1-0.4,1-1v-3C48,29.4,47.6,29,47,29L47,29z"/>
</g>
</svg>
