<?xml version="1.0" encoding="utf-8"?>
<!-- Generator: Adobe Illustrator 21.0.2, SVG Export Plug-In . SVG Version: 6.00 Build 0)  -->
<svg version="1.1" id="Layer_1" xmlns="http://www.w3.org/2000/svg" xmlns:xlink="http://www.w3.org/1999/xlink" x="0px" y="0px"
	 viewBox="0 0 500 500" style="enable-background:new 0 0 500 500;" xml:space="preserve">
<style type="text/css">
	.st0{fill:#1A1A1A;}
</style>
<polygon class="st0" points="128.9,205.9 130.3,205.9 109.2,115.9 25.1,205.9 "/>
<polygon class="st0" points="392,116.5 369.8,205.9 371.1,205.9 475.1,205.9 392.1,115.9 "/>
<polygon class="st0" points="150.1,220.4 250,477.5 261.5,447.8 349.9,220.4 "/>
<polygon class="st0" points="222.4,119.3 233.3,108.3 122.3,108.3 143.6,198.8 "/>
<polygon class="st0" points="379,108.3 268,108.3 294.3,135.2 356.6,198.8 "/>
<polygon class="st0" points="134.5,220.4 24.1,220.4 227.6,460 "/>
<polygon class="st0" points="365.5,220.4 272.4,460 475.9,220.4 "/>
<polygon class="st0" points="250.7,111.4 156.9,205.9 343.2,205.9 "/>
<polygon class="st0" points="110.5,86.4 105.2,84.6 103.3,79.3 102,70.9 100.6,79.3 98.7,84.6 93.5,86.4 85.1,87.8 93.5,89.2 
	98.7,91 100.6,96.3 102,104.7 103.3,96.3 105.2,91 110.5,89.2 118.8,87.8 "/>
<polygon class="st0" points="368.3,42.7 356.9,38.7 352.8,27.2 349.9,9.1 346.9,27.2 342.9,38.7 331.4,42.7 313.3,45.7 331.4,48.6 
	342.9,52.7 346.9,64.1 349.9,82.3 352.8,64.1 356.9,52.7 368.3,48.6 386.5,45.7 "/>
<circle class="st0" cx="220.8" cy="69.2" r="6.8"/>
<polygon class="st0" points="138.2,404.6 117.9,397.4 110.7,377.1 105.4,344.8 100.2,377.1 92.9,397.4 72.6,404.6 40.3,409.9 
	72.6,415.1 92.9,422.3 100.2,442.7 105.4,475 110.7,442.7 117.9,422.3 138.2,415.1 170.5,409.9 "/>
</svg>
