<?xml version="1.0" encoding="utf-8"?>
<!-- Generator: Adobe Illustrator 21.0.2, SVG Export Plug-In . SVG Version: 6.00 Build 0)  -->
<svg version="1.1" id="Layer_1" xmlns="http://www.w3.org/2000/svg" xmlns:xlink="http://www.w3.org/1999/xlink" x="0px" y="0px"
	 viewBox="0 0 64 64" style="enable-background:new 0 0 64 64;" xml:space="preserve">
<g>
	<path d="M32.9,57.9c-4,0-7.7-0.6-11.1-1.9c-3.4-1.3-6.4-3-8.9-5.4c-2.5-2.3-4.5-5.1-5.9-8.4C5.7,38.9,5,35.2,5,31.1
		c0-4,0.6-7.7,1.9-11c1.3-3.3,3.2-6.1,5.7-8.5c2.5-2.4,5.5-4.2,8.9-5.5c3.5-1.3,7.3-1.9,11.6-1.9c3.7,0,7.1,0.5,10.4,1.6
		c3.3,1,6.1,2.6,8.6,4.7c2.5,2.1,4.4,4.6,5.9,7.6c1.4,3,2.1,6.5,2.1,10.5c0,3.1-0.5,5.9-1.5,8.4c-1,2.4-2.4,4.4-4.2,5.7
		c-1.8,1.4-4,2.1-6.6,2.1c-1.8,0-3.4-0.4-4.8-1.1c-1.4-0.7-2.4-1.8-3.1-3.2s-1.1-3-1.1-4.9v-3h1.7c-0.1,2.6-0.6,4.7-1.5,6.5
		c-0.9,1.8-2.1,3.1-3.7,4c-1.5,0.9-3.3,1.3-5.4,1.3c-2.2,0-4.2-0.5-6-1.6c-1.8-1.1-3.2-2.6-4.3-4.5c-1-1.9-1.6-4.2-1.6-6.8v-0.9
		c0-2.6,0.5-4.8,1.5-6.7c1-1.9,2.4-3.3,4.2-4.3c1.8-1,3.7-1.5,5.9-1.5c2.1,0,4,0.5,5.6,1.4c1.6,0.9,2.8,2.2,3.8,3.9s1.5,3.7,1.6,6
		h-1.1V19h6.2v16c0,0.8,0.1,1.4,0.3,1.9c0.2,0.5,0.5,0.9,0.9,1.1c0.4,0.3,0.9,0.4,1.5,0.4c1,0,1.9-0.4,2.7-1.2
		c0.7-0.8,1.3-1.9,1.7-3.3c0.4-1.5,0.6-3.2,0.6-5.2c0-3.2-0.5-5.9-1.6-8.2c-1.1-2.3-2.6-4.2-4.4-5.7c-1.9-1.5-4-2.6-6.4-3.3
		c-2.4-0.7-5-1.1-7.7-1.1c-3.3,0-6.3,0.5-9,1.5c-2.7,1-4.9,2.4-6.8,4.2c-1.9,1.8-3.3,4-4.2,6.5s-1.5,5.4-1.5,8.5
		c0,4.2,0.9,7.8,2.7,10.9c1.8,3,4.3,5.4,7.5,7c3.2,1.6,6.8,2.5,11,2.5c1.2,0,25.4-0.1,26.7-0.2c0,0,0,0,0,0c1.9-0.2,3.6,1.3,3.6,3.2
		v0c0,1.6-1.2,3-2.9,3.2c-0.2,0-0.5,0.1-0.7,0.1C58.3,57.9,34,57.9,32.9,57.9z M31.6,38.1c1.2,0,2.2-0.3,3.2-0.8
		c0.9-0.5,1.6-1.3,2.2-2.3c0.5-1,0.8-2.2,0.8-3.6v-1.1c0-1.3-0.3-2.3-0.8-3.2c-0.6-0.9-1.3-1.6-2.2-2.1c-0.9-0.5-2-0.7-3.1-0.7
		c-1.2,0-2.3,0.3-3.2,0.9c-0.9,0.6-1.6,1.4-2.1,2.4c-0.5,1-0.7,2.2-0.7,3.5c0,1.3,0.2,2.5,0.7,3.6c0.5,1.1,1.2,1.9,2.1,2.5
		C29.2,37.8,30.3,38.1,31.6,38.1z"/>
</g>
</svg>
