<?xml version="1.0" encoding="utf-8"?>
<!-- Generator: Adobe Illustrator 21.0.2, SVG Export Plug-In . SVG Version: 6.00 Build 0)  -->
<svg version="1.1" id="Layer_1" xmlns="http://www.w3.org/2000/svg" xmlns:xlink="http://www.w3.org/1999/xlink" x="0px" y="0px"
	 viewBox="0 0 500 500" style="enable-background:new 0 0 500 500;" xml:space="preserve">
<style type="text/css">
	.st0{fill:#FFFFFF;}
	.st1{fill:#FFFFFF;stroke:#000000;stroke-width:10;stroke-miterlimit:10;}
</style>
<path d="M374.5,184.6H168.7c-13.3,0-24,9-24,20.1v102c0,7.3,7.1,13.2,15.8,13.2h224.8h61.1c10.9,0,19.7-7.4,19.7-16.5v-37.7
	c0-4.1-14.5-7.7-17.7-10.8l-55.9-63.8C387.8,187,381.3,184.6,374.5,184.6z"/>
<path class="st0" d="M388,200.8l36.2,41.6c4.3,4,0.9,10.3-5.4,10.3h-39c-4.1,0-12.1-3.9-12.1-7.3V203
	C367.6,197.4,383.4,196.6,388,200.8z"/>
<circle class="st1" cx="408.1" cy="319.9" r="27"/>
<circle class="st1" cx="210.7" cy="319.9" r="27"/>
<path d="M202.7,229.3H86.5c-4.1,0-7.5-3.4-7.5-7.5v-2.4c0-4.1,3.4-7.5,7.5-7.5h116.2c4.1,0,7.5,3.4,7.5,7.5v2.4
	C210.2,225.9,206.8,229.3,202.7,229.3z"/>
<path d="M151.7,261.4H35.5c-4.1,0-7.5-3.4-7.5-7.5v-2.4c0-4.1,3.4-7.5,7.5-7.5h116.2c4.1,0,7.5,3.4,7.5,7.5v2.4
	C159.2,258,155.8,261.4,151.7,261.4z"/>
<path d="M217.2,293.5H101.1c-4.1,0-7.5-3.4-7.5-7.5v-2.4c0-4.1,3.4-7.5,7.5-7.5h116.2c4.1,0,7.5,3.4,7.5,7.5v2.4
	C224.7,290.1,221.4,293.5,217.2,293.5z"/>
</svg>
