<?xml version="1.0" encoding="utf-8"?>
<!-- Generator: Adobe Illustrator 21.0.2, SVG Export Plug-In . SVG Version: 6.00 Build 0)  -->
<svg version="1.1" id="Layer_1" xmlns="http://www.w3.org/2000/svg" xmlns:xlink="http://www.w3.org/1999/xlink" x="0px" y="0px"
	 viewBox="0 0 500 500" style="enable-background:new 0 0 500 500;" xml:space="preserve">
<style type="text/css">
	.st0{fill:#FFFFFF;}
	.st1{fill:#FFFFFF;stroke:#000000;stroke-width:10;stroke-miterlimit:10;}
</style>
<g>
	<polygon class="st0" points="101,451 101,61 303,61 398,156 398,451 	"/>
	<path d="M301,66l92,92v288H106V66H301 M305.1,56H96v400h307V153.9L305.1,56L305.1,56z"/>
</g>
<polygon class="st1" points="306.5,151.1 390,151.1 306.9,68 "/>
<path d="M369,220H130c-2.8,0-5-2.3-5-5l0,0c0-2.8,2.3-5,5-5h239c2.8,0,5,2.3,5,5l0,0C374,217.8,371.8,220,369,220z"/>
<path d="M369,250H130c-2.8,0-5-2.3-5-5l0,0c0-2.8,2.3-5,5-5h239c2.8,0,5,2.3,5,5l0,0C374,247.8,371.8,250,369,250z"/>
<path d="M369,280H130c-2.8,0-5-2.3-5-5l0,0c0-2.8,2.3-5,5-5h239c2.8,0,5,2.3,5,5l0,0C374,277.8,371.8,280,369,280z"/>
<path d="M370,310H131c-2.8,0-5-2.3-5-5l0,0c0-2.8,2.3-5,5-5h239c2.8,0,5,2.3,5,5l0,0C375,307.8,372.8,310,370,310z"/>
<path d="M370,340H131c-2.8,0-5-2.3-5-5l0,0c0-2.8,2.3-5,5-5h239c2.8,0,5,2.3,5,5l0,0C375,337.8,372.8,340,370,340z"/>
</svg>
