<?xml version="1.0" encoding="utf-8"?>
<!-- Generator: Adobe Illustrator 21.0.2, SVG Export Plug-In . SVG Version: 6.00 Build 0)  -->
<svg version="1.1" id="Layer_1" xmlns="http://www.w3.org/2000/svg" xmlns:xlink="http://www.w3.org/1999/xlink" x="0px" y="0px"
	 viewBox="0 0 128 128" style="enable-background:new 0 0 128 128;" xml:space="preserve">
<style type="text/css">
	.st0{stroke:#000000;}
</style>
<g>
	<g>
		<path class="st0" d="M99.6,13.8l-4.2,19.7c-4-4-9.9-6-17.6-6c-7.7,0-14,2.8-18.7,8.3c-2.7,3.1-4.6,7-5.8,11.7l39,0l-2.3,11
			l-38.2,0c0,1.1-0.1,2.5-0.1,4.2c0,1.7,0,3.4,0.1,5.2l36.1,0l-2.3,11l-32.4,0c1.2,5.1,3,9,5.5,11.9c4.7,5.6,10.9,8.4,18.4,8.4
			c9.1,0,16.3-2.8,21.7-8.4l0,21.7c-6.2,3.1-13.3,4.6-21.5,4.6c-13.8,0-25.2-4.7-34.1-14.2c-6.1-6.4-10-14.5-12-24.1l-10.5,0l2.3-11
			l7,0c0-1.1-0.1-2.3-0.1-3.6c0-2.2,0-4.1,0.1-5.7l-9.3,0l2.3-11l8.4,0c2-9.4,5.9-17.3,11.9-23.6c8.9-9.6,20.7-14.3,35.3-14.3
			C86.8,9.5,93.7,10.9,99.6,13.8z"/>
	</g>
</g>
</svg>
