<?xml version="1.0" encoding="utf-8"?>
<!-- Generator: Adobe Illustrator 21.0.2, SVG Export Plug-In . SVG Version: 6.00 Build 0)  -->
<svg version="1.1" xmlns="http://www.w3.org/2000/svg" xmlns:xlink="http://www.w3.org/1999/xlink" x="0px" y="0px"
	 viewBox="0 0 500 500" style="enable-background:new 0 0 500 500;" xml:space="preserve">
<style type="text/css">
	.st0{fill:none;stroke:#FFFFFF;stroke-miterlimit:10;}
	.st1{fill:none;}
	.st2{fill:#FFFFFF;}
	.st3{font-family:'NimbusRomNo9L-Reg';}
	.st4{font-size:45px;}
	.st5{fill:none;stroke:#FFFFFF;stroke-width:2;stroke-linejoin:bevel;stroke-miterlimit:10;}
</style>
<g id="Layer_1">
	<circle class="st0" cx="250.4" cy="200.7" r="159.5"/>
	<circle class="st0" cx="250.3" cy="201.2" r="151"/>
	<rect x="46.3" y="409.6" class="st1" width="423" height="83"/>
	<text transform="matrix(1 0 0 1 46.2727 440.3085)" class="st2 st3 st4">KELLA PANDIMAJA</text>
	<text transform="matrix(1 0 0 1 221.1059 89.0312)" class="st2 st3 st4">XII</text>
	<text transform="matrix(-1 0 0 -1 279.7847 313.542)" class="st2 st3 st4">VI</text>
	<text transform="matrix(0 -1 1 0 140.3485 226.1187)" class="st2 st3 st4">IX</text>
	<text transform="matrix(0 1 -1 0 361.8379 178.8098)" class="st2 st3 st4">III</text>
	<circle class="st0" cx="248.9" cy="201.7" r="12"/>
	<circle class="st2" cx="248.9" cy="201.7" r="3.8"/>
	<path class="st2" d="M249.5,125.2L249.5,125.2L249.5,125.2z"/>
	<path class="st2" d="M255.6,152.1c-2.7-3.4-5.8-10.5-6.7-26.9c-0.9,16.5-4,23.5-6.7,26.9c-0.6,0.8-2.9,3.4-2.9,6.8
		c0,4,2.8,6.7,3.1,7c2.6,2.5,5.8,2.6,6.5,2.6c0.8,0,3.9-0.2,6.5-2.6c0.3-0.2,3.1-3,3.1-7C258.4,155.5,256.2,152.9,255.6,152.1z"/>
	<path class="st2" d="M257.1,160.9"/>
	<g>
		<path class="st2" d="M223.8,378.2c-6.8-1.6-13.4-3.6-20-6l-4.9-1.8c-1.6-0.6-3.3-1.3-4.9-1.9l-4.8-2l-4.8-2.2
			c-12.6-5.9-24.7-13-36-21.3c-11.3-8.3-21.6-17.8-30.9-28.3c-2.3-2.6-4.7-5.2-6.8-8c-2.1-2.8-4.3-5.5-6.4-8.3
			c-4-5.7-7.9-11.6-11.3-17.7c-0.8-1.5-1.7-3-2.5-4.6l-2.4-4.7l-1.2-2.3l-1.1-2.4l-2.2-4.8c-2.7-6.5-5.2-13-7.2-19.7
			c-1.1-3.3-1.9-6.7-2.9-10.1c-0.4-1.7-0.8-3.4-1.2-5.1l-0.6-2.6l-0.5-2.6c-1.5-6.8-2.4-13.8-3.2-20.7c-2.8-27.8-0.7-56.1,6.7-83
			c-3.4,13.5-5.3,27.3-6.2,41.2c-0.8,13.9-0.6,27.8,1,41.6c3.2,27.5,11.3,54.6,25.2,78.7c3.3,6.1,7.2,11.9,11.1,17.6
			c2,2.8,4.2,5.5,6.3,8.3c2,2.8,4.4,5.4,6.7,8c9.1,10.4,19.4,19.8,30.4,28.2c11.1,8.4,23,15.6,35.5,21.7l4.7,2.3l4.8,2.1
			c1.6,0.7,3.2,1.4,4.8,2l4.8,1.9C210.4,374.2,217.1,376.3,223.8,378.2z"/>
	</g>
	<g>
		<path class="st2" d="M274.7,378.2c6.7-1.9,13.3-4,19.8-6.5l4.8-1.9c1.6-0.6,3.2-1.3,4.8-2l4.8-2.1l4.7-2.3
			c12.5-6.1,24.4-13.3,35.5-21.7c11-8.4,21.3-17.8,30.4-28.2c2.3-2.6,4.6-5.2,6.7-8c2.1-2.8,4.3-5.5,6.3-8.3
			c4-5.7,7.8-11.5,11.1-17.6c13.8-24,22-51.1,25.2-78.7c1.6-13.8,1.9-27.7,1-41.6c-0.8-13.9-2.8-27.7-6.2-41.2
			c7.4,26.9,9.4,55.2,6.7,83c-0.7,6.9-1.7,13.9-3.2,20.7l-0.5,2.6l-0.6,2.6c-0.4,1.7-0.8,3.4-1.2,5.1c-0.9,3.4-1.8,6.8-2.9,10.1
			c-2,6.7-4.6,13.2-7.2,19.7l-2.2,4.8l-1.1,2.4l-1.2,2.3l-2.4,4.7c-0.8,1.6-1.7,3.1-2.5,4.6c-3.4,6.1-7.3,12-11.3,17.7
			c-2,2.8-4.3,5.5-6.4,8.3c-2.1,2.8-4.5,5.4-6.8,8c-9.3,10.4-19.6,20-30.9,28.3c-11.3,8.3-23.3,15.4-36,21.3l-4.8,2.2l-4.8,2
			c-1.6,0.7-3.2,1.3-4.9,1.9l-4.9,1.8C288.2,374.5,281.5,376.6,274.7,378.2z"/>
	</g>
	<g>
		<path class="st2" d="M226.3,399.7c-7.8-3.5-15.7-6.7-23.8-9.4c-4-1.4-8.1-2.7-12.2-3.9c-4.1-1.2-8.2-2.3-12.4-3.2
			c-16.6-3.9-33.6-6.2-50.5-5.7c-8.5,0.1-17,0.9-25.3,2.5c-8.3,1.6-16.5,3.9-24.4,7l-1.5,0.6l-1.5,0.6l-2.9,1.3
			c-2,0.8-3.8,1.8-5.7,2.8c-3.8,1.8-7.5,4-11.1,6.3c-7.2,4.5-13.9,9.9-20.2,15.7c5.9-6.1,12.5-11.7,19.6-16.5
			c3.6-2.4,7.2-4.7,11-6.6c1.9-1,3.8-2.1,5.7-2.9l2.9-1.3l1.5-0.7l1.5-0.6c15.9-6.6,33.1-9.7,50.3-10.1c17.2-0.3,34.3,2,50.9,6.2
			C194.9,386,211,392,226.3,399.7z"/>
	</g>
	<g>
		<path class="st2" d="M272.3,400.3c15.2-7.7,31.4-13.7,48-18c16.6-4.2,33.8-6.5,50.9-6.2c17.2,0.4,34.4,3.5,50.3,10.1l1.5,0.6
			l1.5,0.7l2.9,1.3c2,0.9,3.8,1.9,5.7,2.9c3.8,1.9,7.5,4.2,11,6.6c7.1,4.8,13.7,10.4,19.6,16.5c-6.3-5.8-13-11.1-20.2-15.7
			c-3.6-2.3-7.2-4.5-11.1-6.3c-1.9-0.9-3.8-2-5.7-2.8l-2.9-1.3l-1.5-0.6l-1.5-0.6c-7.9-3.1-16.1-5.4-24.4-7
			c-8.3-1.6-16.8-2.4-25.3-2.5c-17-0.4-34,1.9-50.5,5.7c-4.2,0.9-8.3,2.1-12.4,3.2c-4.1,1.2-8.2,2.5-12.2,3.9
			C288.1,393.7,280.1,396.8,272.3,400.3z"/>
	</g>
	<polygon class="st2" points="251.3,165.2 248.8,165.2 248.4,165.2 245.9,165.2 245.2,190.1 248.4,189.7 248.8,189.7 252,190.1 	"/>
	<path class="st2" d="M280.6,225.9"/>
	<polygon class="st2" points="292.8,227 294,224.7 294.1,224.4 295.3,222.2 261.1,203.7 259.6,206.5 259.4,206.9 257.9,209.7 	"/>
	<path class="st2" d="M305.9,237.8c3.6-0.2,7.1,1.2,14.2,3.8c4.4,1.6,8,3.4,14.9,6.7c3.3,1.6,4.6,2.3,4.6,2.2c0,0,0,0-0.1-0.1
		c0.1,0,0.1,0,0.1,0c0-0.1-1.3-0.8-4.3-2.8c-6.4-4.2-9.8-6.4-13.5-9.3c-5.9-4.7-9-7-10.7-10.1c-1.7-3.2-2.4-6.3-5.6-8
		c-2.6-1.3-5.2-0.9-5.9-0.8c-4.3,0.8-6.5,4-6.9,4.7c-0.3,0.7-2,4.3-0.4,8.3c0.3,0.7,1.3,3.2,3.8,4.7
		C299.3,239.1,302.4,238,305.9,237.8z"/>
	<polygon class="st5" points="88.2,93.4 31.2,92.5 25.9,71.8 52,38.2 73.4,38.3 	"/>
	<line class="st5" x1="31.2" y1="92.5" x2="73.4" y2="38.3"/>
	<polygon class="st5" points="88.2,93.4 25.9,71.8 52,38.2 61.8,53.2 	"/>
	<polygon class="st5" points="42.8,77.6 38.9,55 61.8,53.2 	"/>
	<polygon class="st5" points="409.9,93.8 466.9,92.9 472.2,72.2 446.1,38.6 424.7,38.7 	"/>
	<line class="st5" x1="466.9" y1="92.9" x2="424.7" y2="38.7"/>
	<polygon class="st5" points="409.9,93.8 472.2,72.2 446.1,38.6 436.3,53.6 	"/>
	<polygon class="st5" points="455.3,78 459.2,55.4 436.3,53.6 	"/>
	<rect x="247.1" y="41.8" class="st2" width="5.4" height="8.4"/>
	<rect x="247.1" y="352.2" class="st2" width="5.4" height="8.4"/>
	
		<rect x="92.4" y="197.5" transform="matrix(6.123234e-17 -1 1 6.123234e-17 -106.6467 296.8172)" class="st2" width="5.4" height="8.4"/>
	
		<rect x="402.8" y="197.5" transform="matrix(6.123234e-17 -1 1 6.123234e-17 203.7283 607.1921)" class="st2" width="5.4" height="8.4"/>
	
		<rect x="165.9" y="328.7" transform="matrix(-0.833 -0.5533 0.5533 -0.833 124.8294 703.5159)" class="st2" width="5.4" height="8.4"/>
	
		<rect x="336.4" y="69.3" transform="matrix(-0.833 -0.5533 0.5533 -0.833 580.9786 322.2983)" class="st2" width="5.4" height="8.4"/>
	
		<rect x="158.9" y="69.3" transform="matrix(0.833 -0.5533 0.5533 0.833 -13.6655 101.6667)" class="st2" width="5.4" height="8.4"/>
	
		<rect x="328.4" y="328.7" transform="matrix(0.833 -0.5533 0.5533 0.833 -128.8986 238.7797)" class="st2" width="5.4" height="8.4"/>
	<rect x="109.5" y="266.9" transform="matrix(-0.5 -0.866 0.866 -0.5 -66.5219 503.7826)" class="st2" width="5.4" height="8.4"/>
	<rect x="386.1" y="266.9" transform="matrix(0.5 -0.866 0.866 0.5 -40.3966 472.2201)" class="st2" width="5.4" height="8.4"/>
	<rect x="107.1" y="130.1" transform="matrix(0.5 -0.866 0.866 0.5 -61.3782 162.2619)" class="st2" width="5.4" height="8.4"/>
	<rect x="385.2" y="125.7" transform="matrix(-0.5 -0.866 0.866 -0.5 469.2598 530.791)" class="st2" width="5.4" height="8.4"/>
</g>
<g id="Layer_2">
</g>
</svg>
