<?xml version="1.0" encoding="utf-8"?>
<!-- Generator: Adobe Illustrator 21.0.2, SVG Export Plug-In . SVG Version: 6.00 Build 0)  -->
<svg version="1.1" id="Layer_1" xmlns="http://www.w3.org/2000/svg" xmlns:xlink="http://www.w3.org/1999/xlink" x="0px" y="0px"
	 viewBox="0 0 64 64" style="enable-background:new 0 0 64 64;" xml:space="preserve">
<g>
	<path d="M9.8,8.2c3.5-3.5,8.9-4.2,13.1-2.1L23,7.6l1.8,17.5c-1.1,0.9-2.3,1.5-3.6,1.9c0.9,3.2,2.5,6.2,4.7,8.9l1.5,1.7l1.9,1.8
		c2.9,2.5,6.2,4.3,9.7,5.4c0.5-1.5,1.3-2.9,2.4-4.1l18,1.9l0.1,0c2.6,4.3,2,10-1.7,13.7c-1.1,1.1-2.4,1.9-3.7,2.5
		c-2,0.4-4.1,0.6-6.1,0.7c-10.7,0.4-21.5-3.5-29.6-11.7S6.2,28.8,6.6,18.1C6.7,16,6.9,14,7.3,12C7.8,10.6,8.6,9.4,9.8,8.2z"/>
</g>
</svg>
