<svg width="100" height="100" viewBox="0 0 100 100" fill="none" xmlns="http://www.w3.org/2000/svg">
<rect width="100" height="100" fill="#B4B6B7"/>
<rect width="100" height="100" stroke="black"/>
<path d="M71.9604 35.0831L60.2213 23.3439C60.0017 23.1233 59.7035 23 59.3913 23H31.2174C29.2757 23 27.6957 24.5801 27.6957 26.5217V73.4782C27.6957 75.4199 29.2758 76.9999 31.2174 76.9999H68.7826C70.7231 76.9999 72.3032 75.421 72.3043 73.4805V73.4782V35.9131C72.3043 35.6019 72.1811 35.3026 71.9604 35.0831ZM37.0869 37.0869V32.3913H55.8695V37.0869H37.0869ZM69.9565 73.4783C69.9565 74.1263 69.4306 74.6522 68.7826 74.6522H31.2174C30.5705 74.6522 30.0435 74.1263 30.0435 73.4783V26.5217C30.0435 25.8749 30.5707 25.3478 31.2174 25.3478H55.8695V30.0435H35.9131C35.2651 30.0435 34.7392 30.5694 34.7392 31.2174V38.2609C34.7392 38.9089 35.2651 39.4348 35.9131 39.4348H57.0435H69.9566L69.9565 73.4783ZM69.9565 37.0869H58.2174V25.3478H58.9053L69.9565 36.3991V37.0869Z" fill="#FDFEFF"/>
<rect x="33.5366" y="28.2683" width="22.3902" height="11.8537" fill="#B4B6B7"/>
</svg>
