<?xml version="1.0" encoding="utf-8"?>
<!-- Generator: Adobe Illustrator 21.0.2, SVG Export Plug-In . SVG Version: 6.00 Build 0)  -->
<svg version="1.1" id="Layer_1" xmlns="http://www.w3.org/2000/svg" xmlns:xlink="http://www.w3.org/1999/xlink" x="0px" y="0px"
	 viewBox="0 0 128 128" style="enable-background:new 0 0 128 128;" xml:space="preserve">
<style type="text/css">
	.st0{fill:#565656;}
	.st1{fill:#FFFFFF;}
</style>
<g>
	<circle class="st0" cx="64" cy="66" r="52"/>
</g>
<path class="st1" d="M88.6,48.8L46.8,90.6c-2,2-5.4,2-7.3,0l0,0c-2-2-2-5.4,0-7.3l41.8-41.8c2-2,5.4-2,7.3,0l0,0
	C90.6,43.5,90.6,46.8,88.6,48.8z"/>
<path class="st1" d="M81.3,90.6L39.4,48.8c-2-2-2-5.4,0-7.3l0,0c2-2,5.4-2,7.3,0l41.8,41.8c2,2,2,5.4,0,7.3l0,0
	C86.5,92.6,83.2,92.6,81.3,90.6z"/>
</svg>
