<?xml version="1.0" encoding="utf-8"?>
<!-- Generator: Adobe Illustrator 21.0.2, SVG Export Plug-In . SVG Version: 6.00 Build 0)  -->
<svg version="1.1" id="Layer_1" xmlns="http://www.w3.org/2000/svg" xmlns:xlink="http://www.w3.org/1999/xlink" x="0px" y="0px"
	 viewBox="0 0 128 128" style="enable-background:new 0 0 128 128;" xml:space="preserve">
<style type="text/css">
	.st0{fill:#FFFFFF;}
	.st1{fill:#7D51A0;}
</style>
<g>
	<ellipse class="st0" cx="64.2" cy="66" rx="47.6" ry="46.2"/>
	<path class="st1" d="M64,14c-28.7,0-52,23.3-52,52s23.3,52,52,52s52-23.3,52-52S92.7,14,64,14z M63.4,36.3c0.2-0.7,0.8-1,0.9-1.1
		c0.3-0.1,0.6-0.2,1.1-0.2c0,0,0.5,0,0.9,0C80,35.4,91.9,45.1,93.6,59.9c0.1,1,0.3,2.2,0.4,4.6c0,0.5,0,1.4-0.6,1.9
		c-0.3,0.3-0.6,0.4-0.8,0.4c-0.3-0.1-0.8-0.2-1.1-0.6C91,65.7,91,65,91,64.7c-0.1-2.7-0.5-5.4-1.1-8c-2.3-9.7-11.1-17.4-21-18.5
		c-1.2-0.1-2.3-0.3-3.5-0.3c-0.8,0-1.6-0.2-1.9-0.7C63.2,36.9,63.4,36.4,63.4,36.3z M68.8,45.5c0,0-0.6,0-1.3-0.2
		c-0.6-0.1-1-0.3-1.3-0.6c-0.3-0.4-0.4-0.8-0.4-1.1c0.1-0.3,0.2-0.6,0.6-0.9c0.5-0.4,1.1-0.4,1.4-0.4c8.1,0.4,12.9,5.1,12.9,5.1
		c0.4,0.4,2.2,2.1,3.7,5c1.8,3.4,2.4,6.6,2.5,8.5c0,0.4,0,1.1-0.3,1.8c-0.1,0.3-0.3,0.6-0.6,0.8c-0.4,0.3-0.8,0.3-1,0.3
		c-0.2-0.1-0.5-0.2-0.7-0.5c-0.3-0.3-0.4-0.6-0.4-0.8c-0.4-3.7-1-7.4-3.3-10.5C77.6,48,73.5,46.2,68.8,45.5z M79.4,59.6
		c-0.1,1.1-0.5,1.5-0.6,1.6c-0.3,0.3-0.7,0.4-0.9,0.4c-0.3-0.1-0.6-0.2-0.9-0.5c-0.5-0.4-0.5-1.1-0.5-1.3c-0.1-0.9-0.8-3.9-2.3-5.3
		c-1-0.9-2.3-1.3-4.2-1.6c-0.8-0.1-1.5-0.3-1.8-0.8c-0.2-0.4-0.1-0.8,0-1c0.3-1,1.6-1.3,1.7-1.3c0.8,0.1,6.1,0.9,8.5,4.8
		C79.5,56.8,79.4,59,79.4,59.6z M93.9,88.6c-2,2.4-3.9,4.9-6.2,6.9c-2,1.7-4.6,1.9-7.2,0.9C59,87.6,43.6,72.7,34.7,51.2
		c-0.2-0.5-0.4-1.1-0.6-1.6c-1.7-4.8-1.2-6.7,2.8-9.9c1.3-1.1,2.7-2,4.1-2.9c2.4-1.5,5-1.5,6.7,0.6c3,3.6,5.8,7.3,8.2,11.3
		c1.8,2.9,1.2,4.6-1.5,6.8c-0.6,0.5-1.3,1-1.9,1.5c-1.5,1.3-2.2,2.8-1.5,4.8c3,8.9,9.2,14.5,17.9,17.5c1,0.3,2.6-0.4,3.7-1.1
		c0.8-0.5,1.3-1.5,1.9-2.3c1.7-2.2,4.5-3.1,6.8-1.6c4.1,2.6,8.1,5.5,11.9,8.5c0.8,0.6,1,2.1,1.5,3.1C94.4,87,94.4,87.9,93.9,88.6z"
		/>
</g>
</svg>
