<?xml version="1.0" encoding="utf-8"?>
<!-- Generator: Adobe Illustrator 21.0.2, SVG Export Plug-In . SVG Version: 6.00 Build 0)  -->
<svg version="1.1" id="Layer_1" xmlns="http://www.w3.org/2000/svg" xmlns:xlink="http://www.w3.org/1999/xlink" x="0px" y="0px"
	 viewBox="0 0 128 128" style="enable-background:new 0 0 128 128;" xml:space="preserve">
<style type="text/css">
	.st0{fill:#0A8200;}
	.st1{fill:#FFFFFF;}
</style>
<g>
	<circle class="st0" cx="64" cy="66" r="52"/>
</g>
<path class="st1" d="M89.9,78.6l-2.3,10C87.2,90,86,91,84.5,91c-25.1,0-45.6-20.4-45.6-45.6c0-1.5,1-2.7,2.4-3l10-2.3
	c1.5-0.3,3,0.4,3.6,1.8l4.6,10.8c0.5,1.3,0.2,2.8-0.9,3.6l-5.4,4.3c3.4,6.9,9,12.5,15.9,15.9l4.4-5.4c0.9-1.1,2.4-1.4,3.6-0.9
	l10.8,4.6C89.4,75.6,90.2,77.1,89.9,78.6z"/>
</svg>
<?xml version="1.0" encoding="utf-8"?>
<!-- Generator: Adobe Illustrator 21.0.2, SVG Export Plug-In . SVG Version: 6.00 Build 0)  -->
<svg version="1.1" id="Layer_1" xmlns="http://www.w3.org/2000/svg" xmlns:xlink="http://www.w3.org/1999/xlink" x="0px" y="0px"
	 viewBox="0 0 128 128" style="enable-background:new 0 0 128 128;" xml:space="preserve">
<style type="text/css">
	.st0{fill:#0A8200;}
	.st1{fill:#FFFFFF;}
</style>
<g>
	<circle class="st0" cx="64" cy="66" r="52"/>
</g>
<path class="st1" d="M89.9,78.6l-2.3,10C87.2,90,86,91,84.5,91c-25.1,0-45.6-20.4-45.6-45.6c0-1.5,1-2.7,2.4-3l10-2.3
	c1.5-0.3,3,0.4,3.6,1.8l4.6,10.8c0.5,1.3,0.2,2.8-0.9,3.6l-5.4,4.3c3.4,6.9,9,12.5,15.9,15.9l4.4-5.4c0.9-1.1,2.4-1.4,3.6-0.9
	l10.8,4.6C89.4,75.6,90.2,77.1,89.9,78.6z"/>
</svg>
