<?xml version="1.0" encoding="utf-8"?>
<!-- Generator: Adobe Illustrator 21.0.2, SVG Export Plug-In . SVG Version: 6.00 Build 0)  -->
<svg version="1.1" id="Layer_1" xmlns="http://www.w3.org/2000/svg" xmlns:xlink="http://www.w3.org/1999/xlink" x="0px" y="0px"
	 viewBox="0 0 128 128" style="enable-background:new 0 0 128 128;" xml:space="preserve">
<style type="text/css">
	.st0{fill:#FFFFFF;}
	.st1{fill:#01E675;}
</style>
<path class="st0" d="M89.9,78.6l-2.3,10C87.2,90,86,91,84.5,91c-25.1,0-45.6-20.4-45.6-45.6c0-1.5,1-2.7,2.4-3l10-2.3
	c1.5-0.3,3,0.4,3.6,1.8l4.6,10.8c0.5,1.3,0.2,2.8-0.9,3.6l-5.4,4.3c3.4,6.9,9,12.5,15.9,15.9l4.4-5.4c0.9-1.1,2.4-1.4,3.6-0.9
	l10.8,4.6C89.4,75.6,90.2,77.1,89.9,78.6z"/>
<g>
	<path class="st1" d="M64,117.8L64,117.8c28.7,0,52-23.3,52-52l0,0c0-28.7-23.3-52-52-52l0,0c-28.7,0-52,23.3-52,52l0,0
		C12,94.6,35.3,117.8,64,117.8z"/>
	<path class="st0" d="M64,31.2L64,31.2L64,31.2c19.1,0,34.7,15.6,34.7,34.7c0,19.1-15.5,34.7-34.7,34.7c-7,0-13.6-2.1-19.1-5.7
		L31.6,99l4.3-12.9c-4.2-5.7-6.6-12.7-6.6-20.3C29.3,46.7,44.9,31.2,64,31.2z M54.3,48.8c-0.7-1.6-1.2-1.7-2.2-1.7
		c-0.3,0-0.7,0-1.2,0c-1.3,0-2.7,0.4-3.5,1.2c-1,1-3.5,3.5-3.5,8.4c0,5,3.6,9.8,4.1,10.5c0.5,0.7,7.1,11,17.3,15.2
		c8,3.3,10.3,3,12.1,2.6c2.6-0.6,6-2.5,6.8-4.9c0.8-2.4,0.8-4.4,0.6-4.8c-0.2-0.4-0.9-0.7-1.9-1.2c-1-0.5-6-3-6.9-3.3
		c-0.9-0.3-1.8-0.2-2.5,0.8c-1,1.4-1.9,2.8-2.7,3.6c-0.6,0.7-1.6,0.7-2.4,0.4c-1.1-0.5-4.3-1.6-8.1-5c-3-2.7-5-6-5.6-7
		c-0.6-1-0.1-1.6,0.4-2.2c0.5-0.6,1-1.1,1.5-1.7c0.5-0.6,0.8-0.9,1.1-1.6c0.3-0.7,0.1-1.4-0.1-1.9S55.1,50.8,54.3,48.8z"/>
</g>
</svg>
<?xml version="1.0" encoding="utf-8"?>
<!-- Generator: Adobe Illustrator 21.0.2, SVG Export Plug-In . SVG Version: 6.00 Build 0)  -->
<svg version="1.1" id="Layer_1" xmlns="http://www.w3.org/2000/svg" xmlns:xlink="http://www.w3.org/1999/xlink" x="0px" y="0px"
	 viewBox="0 0 128 128" style="enable-background:new 0 0 128 128;" xml:space="preserve">
<style type="text/css">
	.st0{fill:#FFFFFF;}
	.st1{fill:#01E675;}
</style>
<path class="st0" d="M89.9,78.6l-2.3,10C87.2,90,86,91,84.5,91c-25.1,0-45.6-20.4-45.6-45.6c0-1.5,1-2.7,2.4-3l10-2.3
	c1.5-0.3,3,0.4,3.6,1.8l4.6,10.8c0.5,1.3,0.2,2.8-0.9,3.6l-5.4,4.3c3.4,6.9,9,12.5,15.9,15.9l4.4-5.4c0.9-1.1,2.4-1.4,3.6-0.9
	l10.8,4.6C89.4,75.6,90.2,77.1,89.9,78.6z"/>
<g>
	<path class="st1" d="M64,117.8L64,117.8c28.7,0,52-23.3,52-52l0,0c0-28.7-23.3-52-52-52l0,0c-28.7,0-52,23.3-52,52l0,0
		C12,94.6,35.3,117.8,64,117.8z"/>
	<path class="st0" d="M64,31.2L64,31.2L64,31.2c19.1,0,34.7,15.6,34.7,34.7c0,19.1-15.5,34.7-34.7,34.7c-7,0-13.6-2.1-19.1-5.7
		L31.6,99l4.3-12.9c-4.2-5.7-6.6-12.7-6.6-20.3C29.3,46.7,44.9,31.2,64,31.2z M54.3,48.8c-0.7-1.6-1.2-1.7-2.2-1.7
		c-0.3,0-0.7,0-1.2,0c-1.3,0-2.7,0.4-3.5,1.2c-1,1-3.5,3.5-3.5,8.4c0,5,3.6,9.8,4.1,10.5c0.5,0.7,7.1,11,17.3,15.2
		c8,3.3,10.3,3,12.1,2.6c2.6-0.6,6-2.5,6.8-4.9c0.8-2.4,0.8-4.4,0.6-4.8c-0.2-0.4-0.9-0.7-1.9-1.2c-1-0.5-6-3-6.9-3.3
		c-0.9-0.3-1.8-0.2-2.5,0.8c-1,1.4-1.9,2.8-2.7,3.6c-0.6,0.7-1.6,0.7-2.4,0.4c-1.1-0.5-4.3-1.6-8.1-5c-3-2.7-5-6-5.6-7
		c-0.6-1-0.1-1.6,0.4-2.2c0.5-0.6,1-1.1,1.5-1.7c0.5-0.6,0.8-0.9,1.1-1.6c0.3-0.7,0.1-1.4-0.1-1.9S55.1,50.8,54.3,48.8z"/>
</g>
</svg>
<?xml version="1.0" encoding="utf-8"?>
<!-- Generator: Adobe Illustrator 21.0.2, SVG Export Plug-In . SVG Version: 6.00 Build 0)  -->
<svg version="1.1" id="Layer_1" xmlns="http://www.w3.org/2000/svg" xmlns:xlink="http://www.w3.org/1999/xlink" x="0px" y="0px"
	 viewBox="0 0 128 128" style="enable-background:new 0 0 128 128;" xml:space="preserve">
<style type="text/css">
	.st0{fill:#FFFFFF;}
	.st1{fill:#01E675;}
</style>
<path class="st0" d="M89.9,78.6l-2.3,10C87.2,90,86,91,84.5,91c-25.1,0-45.6-20.4-45.6-45.6c0-1.5,1-2.7,2.4-3l10-2.3
	c1.5-0.3,3,0.4,3.6,1.8l4.6,10.8c0.5,1.3,0.2,2.8-0.9,3.6l-5.4,4.3c3.4,6.9,9,12.5,15.9,15.9l4.4-5.4c0.9-1.1,2.4-1.4,3.6-0.9
	l10.8,4.6C89.4,75.6,90.2,77.1,89.9,78.6z"/>
<g>
	<path class="st1" d="M64,117.8L64,117.8c28.7,0,52-23.3,52-52l0,0c0-28.7-23.3-52-52-52l0,0c-28.7,0-52,23.3-52,52l0,0
		C12,94.6,35.3,117.8,64,117.8z"/>
	<path class="st0" d="M64,31.2L64,31.2L64,31.2c19.1,0,34.7,15.6,34.7,34.7c0,19.1-15.5,34.7-34.7,34.7c-7,0-13.6-2.1-19.1-5.7
		L31.6,99l4.3-12.9c-4.2-5.7-6.6-12.7-6.6-20.3C29.3,46.7,44.9,31.2,64,31.2z M54.3,48.8c-0.7-1.6-1.2-1.7-2.2-1.7
		c-0.3,0-0.7,0-1.2,0c-1.3,0-2.7,0.4-3.5,1.2c-1,1-3.5,3.5-3.5,8.4c0,5,3.6,9.8,4.1,10.5c0.5,0.7,7.1,11,17.3,15.2
		c8,3.3,10.3,3,12.1,2.6c2.6-0.6,6-2.5,6.8-4.9c0.8-2.4,0.8-4.4,0.6-4.8c-0.2-0.4-0.9-0.7-1.9-1.2c-1-0.5-6-3-6.9-3.3
		c-0.9-0.3-1.8-0.2-2.5,0.8c-1,1.4-1.9,2.8-2.7,3.6c-0.6,0.7-1.6,0.7-2.4,0.4c-1.1-0.5-4.3-1.6-8.1-5c-3-2.7-5-6-5.6-7
		c-0.6-1-0.1-1.6,0.4-2.2c0.5-0.6,1-1.1,1.5-1.7c0.5-0.6,0.8-0.9,1.1-1.6c0.3-0.7,0.1-1.4-0.1-1.9S55.1,50.8,54.3,48.8z"/>
</g>
</svg>
